<svg width="61" height="165" viewBox="0 0 61 165" fill="none" xmlns="http://www.w3.org/2000/svg">
<rect x="15.2974" y="35" width="29" height="8" fill="white"/>
<path d="M16.7974 27H42.7974L44.2974 35H15.2974L16.7974 27Z" fill="white"/>
<path d="M16.7974 27H42.7974L40.2974 19H19.2974L16.7974 27Z" fill="white"/>
<path d="M22.2974 11H37.2974L40.2974 19H19.2974L22.2974 11Z" fill="white"/>
<path d="M22.2974 11H37.2974L33.2974 3H26.2974L22.2974 11Z" fill="white"/>
<path d="M28.1572 0.76822C28.5628 0.281447 29.1637 0 29.7974 0V0C30.431 0 31.0319 0.281448 31.4375 0.768222L33.2974 3L26.2974 2.99999L28.1572 0.76822Z" fill="white"/>
<path d="M38.7974 15L41.7974 19.5L45.7974 44H44.2974L38.7974 15Z" fill="white"/>
<path d="M38.2974 15L39.7974 15.5L43.2974 19.5H41.2974L38.2974 15Z" fill="white"/>
<path d="M20.8108 15L17.8919 19.5L14 44H15.4594L20.8108 15Z" fill="white"/>
<path d="M21.2974 15L19.8379 15.5L16.4325 19.5H18.3784L21.2974 15Z" fill="white"/>
</svg>
