<svg width="61" height="165" viewBox="0 0 61 165" fill="none" xmlns="http://www.w3.org/2000/svg">
<path d="M46.5 140.5H61V165H46.5V140.5Z" fill="white"/>
<path d="M46.5 129.5H53.5L61 140.5H46.5V129.5Z" fill="white"/>
<path d="M46.5 121.5H48L53.5 129.5H46.5V121.5Z" fill="white"/>
<rect x="16" y="43" width="29" height="122" fill="white"/>
<path d="M45 115L46.5 117.5V165H45V115Z" fill="white"/>
<path d="M46.5 117.5L47.5 119.5L48 121.5H46.5V117.5Z" fill="white"/>
<path d="M16 115L14.5 117.5V165H16V115Z" fill="white"/>
<path d="M14.5 117.5L13.5 119.5L13 121.5H14.5V117.5Z" fill="white"/>
<path d="M14.5 140.5H0V165H14.5V140.5Z" fill="white"/>
<path d="M14.5 129.5H7.5L0 140.5H14.5V129.5Z" fill="white"/>
<path d="M14.5 121.5H13L7.5 129.5H14.5V121.5Z" fill="white"/>
<path d="M44.5 32H57.5L57.4999 43.5L46 43.5L44.5 32Z" fill="white"/>
<path d="M42.5 19.5H44L57.5 32H44.5L42.5 19.5Z" fill="white"/>
<rect x="16" y="35" width="29" height="8" fill="white"/>
<path d="M17.5 27H43.5L45 35H16L17.5 27Z" fill="white"/>
<path d="M17.5 27H43.5L41 19H20L17.5 27Z" fill="white"/>
<path d="M23 11H38L41 19H20L23 11Z" fill="white"/>
<path d="M23 11H38L34 3H27L23 11Z" fill="white"/>
<path d="M28.8598 0.76822C29.2655 0.281447 29.8664 0 30.5 0C31.1336 0 31.7345 0.281448 32.1402 0.768222L34 3L27 2.99999L28.8598 0.76822Z" fill="white"/>
<path d="M39.5 15L42.5 19.5L46.5 44H45L39.5 15Z" fill="white"/>
<path d="M39 15L40.5 15.5L44 19.5H42L39 15Z" fill="white"/>
<path d="M21.5134 15L18.5945 19.5L14.7026 44H16.1621L21.5134 15Z" fill="white"/>
<path d="M22 15L20.5405 15.5L17.1351 19.5H19.0811L22 15Z" fill="white"/>
<path d="M16.6487 32H4.00003L4.0001 43.5L15.1892 43.5L16.6487 32Z" fill="white"/>
<path d="M18.5946 19.5H17.1351L4.00001 32H16.6487L18.5946 19.5Z" fill="white"/>
</svg>
