<svg width="61" height="165" viewBox="0 0 61 165" fill="none" xmlns="http://www.w3.org/2000/svg">
<path d="M43.5 32H56.5L56.4999 43.5L45 43.5L43.5 32Z" fill="white"/>
<path d="M41.5 19.5H43L56.5 32H43.5L41.5 19.5Z" fill="white"/>
<path d="M38.5 15L41.5 19.5L45.5 44H44L38.5 15Z" fill="white"/>
<path d="M38 15L39.5 15.5L43 19.5H41L38 15Z" fill="white"/>
<path d="M20.5134 15L17.5945 19.5L13.7026 44H15.1621L20.5134 15Z" fill="white"/>
<path d="M21 15L19.5405 15.5L16.1351 19.5H18.0811L21 15Z" fill="white"/>
<path d="M15.6487 32H3.00003L3.0001 43.5L14.1892 43.5L15.6487 32Z" fill="white"/>
<path d="M17.5946 19.5H16.1351L3.00001 32H15.6487L17.5946 19.5Z" fill="white"/>
</svg>
