<svg width="29" height="28" viewBox="0 0 29 28" fill="none" xmlns="http://www.w3.org/2000/svg">
<path d="M5.28979 21.292L13.2868 13.295L14.7018 14.709L6.70379 22.706L5.28979 21.292Z" fill="white"/>
<path d="M15.0018 28.0001C14.8751 28.0004 14.7496 27.9766 14.6318 27.9301C14.4679 27.8648 14.3243 27.7573 14.2154 27.6185C14.1065 27.4798 14.0363 27.3147 14.0118 27.1401L13.0118 20.1401L15.0118 19.8601L15.7618 25.1301L19.0018 22.5201V15.0001C19.001 14.8685 19.0262 14.738 19.076 14.6162C19.1258 14.4943 19.1991 14.3835 19.2918 14.2901L23.3618 10.2201C24.2004 9.38711 24.8655 8.39613 25.3187 7.30445C25.7719 6.21276 26.004 5.04206 26.0018 3.86006V2.00006H24.1418C22.9598 1.99782 21.7891 2.22999 20.6974 2.68314C19.6057 3.13629 18.6147 3.80142 17.7818 4.64006L13.7118 8.71006C13.6183 8.80274 13.5075 8.87607 13.3857 8.92583C13.2638 8.9756 13.1334 9.00082 13.0018 9.00006H5.48177L2.87177 12.2601L8.14177 13.0101L7.86177 15.0101L0.861774 14.0101C0.687116 13.9856 0.522045 13.9153 0.383303 13.8064C0.244561 13.6975 0.137084 13.5539 0.071774 13.3901C0.00565496 13.2251 -0.0153008 13.0455 0.011064 12.8697C0.0374288 12.6939 0.110161 12.5284 0.221774 12.3901L4.22177 7.39006C4.31389 7.27037 4.43193 7.1731 4.56702 7.10556C4.70211 7.03801 4.85075 7.00194 5.00177 7.00006H12.5918L16.3618 3.22006C17.3809 2.19517 18.5934 1.3828 19.9289 0.830052C21.2645 0.277309 22.6964 -0.00480712 24.1418 6.19679e-05H26.0018C26.5322 6.19679e-05 27.0409 0.210776 27.416 0.585848C27.7911 0.960921 28.0018 1.46963 28.0018 2.00006V3.86006C28.0066 5.30543 27.7245 6.73738 27.1718 8.07289C26.619 9.4084 25.8067 10.6209 24.7818 11.6401L21.0018 15.4101V23.0001C21.0011 23.1503 20.9666 23.2984 20.9008 23.4334C20.835 23.5685 20.7396 23.6869 20.6218 23.7801L15.6218 27.7801C15.4458 27.9212 15.2273 27.9988 15.0018 28.0001Z" fill="white"/>
</svg>
