<svg width="105" height="105" viewBox="0 0 105 105" fill="none" xmlns="http://www.w3.org/2000/svg">
<path d="M64.0624 51.5061C61.3272 54.2413 56.9063 54.2494 54.1881 51.5312C51.4699 48.813 51.478 44.3921 54.2132 41.6569C56.9485 38.9216 61.3694 38.9135 64.0876 41.6317C66.8058 44.3499 66.7977 48.7708 64.0624 51.5061Z" fill="white" stroke="black"/>
<path d="M48.5061 55.7487C45.7708 58.484 41.3499 58.4921 38.6317 55.7739C35.9135 53.0556 35.9216 48.6347 38.6569 45.8995C41.3921 43.1642 45.813 43.1562 48.5312 45.8744C51.2494 48.5926 51.2413 53.0135 48.5061 55.7487Z" fill="white" stroke="black"/>
<path d="M59.1127 66.3553C56.3774 69.0906 51.9565 69.0987 49.2383 66.3805C46.5201 63.6623 46.5282 59.2414 49.2634 56.5061C51.9987 53.7708 56.4196 53.7628 59.1378 56.481C61.856 59.1992 61.8479 63.6201 59.1127 66.3553Z" fill="white" stroke="black"/>
<path d="M83.4289 45.5C83.4289 49.3682 80.3086 52.5 76.4645 52.5C72.6203 52.5 69.5 49.3682 69.5 45.5C69.5 41.6318 72.6203 38.5 76.4645 38.5C80.3086 38.5 83.4289 41.6318 83.4289 45.5Z" fill="white" stroke="black"/>
<path d="M36.4289 45.5C36.4289 49.3682 33.3086 52.5 29.4645 52.5C25.6203 52.5 22.5 49.3682 22.5 45.5C22.5 41.6318 25.6203 38.5 29.4645 38.5C33.3086 38.5 36.4289 41.6318 36.4289 45.5Z" fill="white" stroke="black"/>
<path d="M38.4645 39.5C34.6203 39.5 31.5 36.3682 31.5 32.5C31.5 28.6318 34.6203 25.5 38.4645 25.5C42.3086 25.5 45.4289 28.6318 45.4289 32.5C45.4289 36.3682 42.3086 39.5 38.4645 39.5Z" fill="white" stroke="black"/>
<path d="M52.7488 14.5C48.9047 14.5 45.7843 11.3682 45.7843 7.5C45.7843 3.63176 48.9047 0.5 52.7488 0.5C56.5929 0.5 59.7133 3.63176 59.7133 7.5C59.7133 11.3682 56.5929 14.5 52.7488 14.5Z" fill="white" stroke="black"/>
<path d="M66.6825 16.5C62.8383 16.5 59.718 13.3682 59.718 9.5C59.718 5.63176 62.8383 2.5 66.6825 2.5C70.5266 2.5 73.6469 5.63176 73.6469 9.5C73.6469 13.3682 70.5266 16.5 66.6825 16.5Z" fill="white" stroke="black"/>
<path d="M80.6161 22.5C76.772 22.5 73.6517 19.3682 73.6517 15.5C73.6517 11.6318 76.772 8.5 80.6161 8.5C84.4602 8.5 87.5806 11.6318 87.5806 15.5C87.5806 19.3682 84.4602 22.5 80.6161 22.5Z" fill="white" stroke="black"/>
<path d="M90.5687 32.5C86.7246 32.5 83.6043 29.3682 83.6043 25.5C83.6043 21.6318 86.7246 18.5 90.5687 18.5C94.4128 18.5 97.5332 21.6318 97.5332 25.5C97.5332 29.3682 94.4128 32.5 90.5687 32.5Z" fill="white" stroke="black"/>
<path d="M97.5355 59.5C93.6914 59.5 90.5711 56.3682 90.5711 52.5C90.5711 48.6317 93.6914 45.5 97.5355 45.5C101.38 45.5 104.5 48.6317 104.5 52.5C104.5 56.3682 101.38 59.5 97.5355 59.5Z" fill="white" stroke="black"/>
<path d="M96.5403 45.5C92.6961 45.5 89.5758 42.3682 89.5758 38.5C89.5758 34.6317 92.6961 31.5 96.5403 31.5C100.384 31.5 103.505 34.6317 103.505 38.5C103.505 42.3682 100.384 45.5 96.5403 45.5Z" fill="white" stroke="black"/>
<path d="M52.7488 90.5C48.9047 90.5 45.7843 93.6317 45.7843 97.5C45.7843 101.368 48.9047 104.5 52.7488 104.5C56.5929 104.5 59.7133 101.368 59.7133 97.5C59.7133 93.6317 56.5929 90.5 52.7488 90.5Z" fill="white" stroke="black"/>
<path d="M66.6825 88.5C62.8682 88.5 59.718 91.8247 59.718 96C59.718 100.175 62.8682 103.5 66.6825 103.5C70.4968 103.5 73.6469 100.175 73.6469 96C73.6469 91.8247 70.4968 88.5 66.6825 88.5Z" fill="white" stroke="black"/>
<path d="M80.6161 83.5C76.739 83.5 73.6517 86.4399 73.6517 90C73.6517 93.5601 76.739 96.5 80.6161 96.5C84.4932 96.5 87.5806 93.5601 87.5806 90C87.5806 86.4399 84.4932 83.5 80.6161 83.5Z" fill="white" stroke="black"/>
<path d="M90.5687 72.5C86.7246 72.5 83.6043 75.6317 83.6043 79.5C83.6043 83.3682 86.7246 86.5 90.5687 86.5C94.4128 86.5 97.5332 83.3682 97.5332 79.5C97.5332 75.6317 94.4128 72.5 90.5687 72.5Z" fill="white" stroke="black"/>
<path d="M96.5403 59.5C92.6962 59.5 89.5758 62.6317 89.5758 66.5C89.5758 70.3682 92.6962 73.5 96.5403 73.5C100.384 73.5 103.505 70.3682 103.505 66.5C103.505 62.6317 100.384 59.5 96.5403 59.5Z" fill="white" stroke="black"/>
<path d="M38.8152 16.5C42.6593 16.5 45.7796 13.3682 45.7796 9.5C45.7796 5.63176 42.6593 2.5 38.8152 2.5C34.971 2.5 31.8507 5.63176 31.8507 9.5C31.8507 13.3682 34.971 16.5 38.8152 16.5Z" fill="white" stroke="black"/>
<path d="M24.8815 22.5C28.7256 22.5 31.846 19.3682 31.846 15.5C31.846 11.6318 28.7256 8.5 24.8815 8.5C21.0374 8.5 17.9171 11.6318 17.9171 15.5C17.9171 19.3682 21.0374 22.5 24.8815 22.5Z" fill="white" stroke="black"/>
<path d="M14.9289 32.5C18.773 32.5 21.8934 29.3682 21.8934 25.5C21.8934 21.6318 18.773 18.5 14.9289 18.5C11.0848 18.5 7.96445 21.6318 7.96445 25.5C7.96445 29.3682 11.0848 32.5 14.9289 32.5Z" fill="white" stroke="black"/>
<path d="M7.96207 59.5C11.8062 59.5 14.9265 56.3682 14.9265 52.5C14.9265 48.6318 11.8062 45.5 7.96207 45.5C4.11795 45.5 0.99762 48.6318 0.99762 52.5C0.99762 56.3682 4.11795 59.5 7.96207 59.5Z" fill="white" stroke="black"/>
<path d="M8.95734 45.5C12.8015 45.5 15.9218 42.3682 15.9218 38.5C15.9218 34.6318 12.8015 31.5 8.95734 31.5C5.11322 31.5 1.99289 34.6318 1.99289 38.5C1.99289 42.3682 5.11322 45.5 8.95734 45.5Z" fill="white" stroke="black"/>
<path d="M38.8152 88.5C42.6295 88.5 45.7796 91.8247 45.7796 96C45.7796 100.175 42.6295 103.5 38.8152 103.5C35.0009 103.5 31.8507 100.175 31.8507 96C31.8507 91.8247 35.0009 88.5 38.8152 88.5Z" fill="white" stroke="black"/>
<path d="M24.8815 83.5C28.7586 83.5 31.846 86.4399 31.846 90C31.846 93.5601 28.7586 96.5 24.8815 96.5C21.0044 96.5 17.9171 93.5601 17.9171 90C17.9171 86.4399 21.0044 83.5 24.8815 83.5Z" fill="white" stroke="black"/>
<path d="M14.9289 72.5C18.773 72.5 21.8934 75.6318 21.8934 79.5C21.8934 83.3682 18.773 86.5 14.9289 86.5C11.0848 86.5 7.96445 83.3682 7.96445 79.5C7.96445 75.6318 11.0848 72.5 14.9289 72.5Z" fill="white" stroke="black"/>
<path d="M8.95734 59.5C12.8015 59.5 15.9218 62.6318 15.9218 66.5C15.9218 70.3682 12.8015 73.5 8.95734 73.5C5.11322 73.5 1.99289 70.3682 1.99289 66.5C1.99289 62.6318 5.11322 59.5 8.95734 59.5Z" fill="white" stroke="black"/>
<path d="M67.4645 39.5C63.6203 39.5 60.5 36.3682 60.5 32.5C60.5 28.6318 63.6203 25.5 67.4645 25.5C71.3086 25.5 74.4289 28.6318 74.4289 32.5C74.4289 36.3682 71.3086 39.5 67.4645 39.5Z" fill="white" stroke="black"/>
<path d="M52.8355 36.5C48.9914 36.5 45.8711 33.3682 45.8711 29.5C45.8711 25.6318 48.9914 22.5 52.8355 22.5C56.6797 22.5 59.8 25.6318 59.8 29.5C59.8 33.3682 56.6797 36.5 52.8355 36.5Z" fill="white" stroke="black"/>
<circle r="7" transform="matrix(1 0 0 -1 76.5 60.5)" fill="white" stroke="black"/>
<circle r="7" transform="matrix(1 0 0 -1 29.5 60.5)" fill="white" stroke="black"/>
<path d="M38.5 66.5C34.634 66.5 31.5 69.634 31.5 73.5C31.5 77.366 34.634 80.5 38.5 80.5C42.366 80.5 45.5 77.366 45.5 73.5C45.5 69.634 42.366 66.5 38.5 66.5Z" fill="white" stroke="black"/>
<path d="M67.5 66.5C63.634 66.5 60.5 69.634 60.5 73.5C60.5 77.366 63.634 80.5 67.5 80.5C71.366 80.5 74.5 77.366 74.5 73.5C74.5 69.634 71.366 66.5 67.5 66.5Z" fill="white" stroke="black"/>
<path d="M52.5 69.5C48.634 69.5 45.5 72.634 45.5 76.5C45.5 80.366 48.634 83.5 52.5 83.5C56.366 83.5 59.5 80.366 59.5 76.5C59.5 72.634 56.366 69.5 52.5 69.5Z" fill="white" stroke="black"/>
</svg>
