<svg width="105" height="105" viewBox="0 0 105 105" fill="none" xmlns="http://www.w3.org/2000/svg">
<path d="M64.3684 51.5069C61.6196 54.2426 57.1769 54.2507 54.4453 51.5321C51.7137 48.8134 51.7218 44.3917 54.4705 41.656C57.2193 38.9203 61.662 38.9122 64.3936 41.6309C67.1252 44.3496 67.1171 48.7712 64.3684 51.5069Z" fill="white" stroke="black"/>
<path d="M48.7379 55.7496C45.9892 58.4853 41.5464 58.4934 38.8148 55.7747C36.0832 53.056 36.0913 48.6344 38.8401 45.8987C41.5888 43.1629 46.0315 43.1548 48.7631 45.8735C51.4948 48.5922 51.4866 53.0138 48.7379 55.7496Z" fill="white" stroke="black"/>
<path d="M59.395 66.3562C56.6463 69.0919 52.2035 69.1 49.4719 66.3813C46.7403 63.6626 46.7484 59.241 49.4972 56.5053C52.2459 53.7695 56.6886 53.7614 59.4203 56.4801C62.1519 59.1988 62.1437 63.6204 59.395 66.3562Z" fill="white" stroke="black"/>
</svg>
