<svg width="106" height="105" viewBox="0 0 106 105" fill="none" xmlns="http://www.w3.org/2000/svg">
<path d="M53.2488 14.5C49.4047 14.5 46.2843 11.3682 46.2843 7.5C46.2843 3.63176 49.4047 0.5 53.2488 0.5C57.0929 0.5 60.2133 3.63176 60.2133 7.5C60.2133 11.3682 57.0929 14.5 53.2488 14.5Z" fill="white" stroke="black"/>
<path d="M67.1825 16.5C63.3383 16.5 60.218 13.3682 60.218 9.5C60.218 5.63176 63.3383 2.5 67.1825 2.5C71.0266 2.5 74.1469 5.63176 74.1469 9.5C74.1469 13.3682 71.0266 16.5 67.1825 16.5Z" fill="white" stroke="black"/>
<path d="M81.1161 22.5C77.272 22.5 74.1517 19.3682 74.1517 15.5C74.1517 11.6318 77.272 8.5 81.1161 8.5C84.9602 8.5 88.0806 11.6318 88.0806 15.5C88.0806 19.3682 84.9602 22.5 81.1161 22.5Z" fill="white" stroke="black"/>
<path d="M91.0687 32.5C87.2246 32.5 84.1043 29.3682 84.1043 25.5C84.1043 21.6318 87.2246 18.5 91.0687 18.5C94.9128 18.5 98.0332 21.6318 98.0332 25.5C98.0332 29.3682 94.9128 32.5 91.0687 32.5Z" fill="white" stroke="black"/>
<path d="M98.0355 59.5C94.1914 59.5 91.0711 56.3682 91.0711 52.5C91.0711 48.6317 94.1914 45.5 98.0355 45.5C101.88 45.5 105 48.6317 105 52.5C105 56.3682 101.88 59.5 98.0355 59.5Z" fill="white" stroke="black"/>
<path d="M97.0403 45.5C93.1961 45.5 90.0758 42.3682 90.0758 38.5C90.0758 34.6318 93.1961 31.5 97.0403 31.5C100.884 31.5 104.005 34.6318 104.005 38.5C104.005 42.3682 100.884 45.5 97.0403 45.5Z" fill="white" stroke="black"/>
<path d="M53.2488 90.5C49.4047 90.5 46.2843 93.6317 46.2843 97.5C46.2843 101.368 49.4047 104.5 53.2488 104.5C57.0929 104.5 60.2133 101.368 60.2133 97.5C60.2133 93.6317 57.0929 90.5 53.2488 90.5Z" fill="white" stroke="black"/>
<path d="M67.1825 88.5C63.3682 88.5 60.218 91.8247 60.218 96C60.218 100.175 63.3682 103.5 67.1825 103.5C70.9968 103.5 74.1469 100.175 74.1469 96C74.1469 91.8247 70.9968 88.5 67.1825 88.5Z" fill="white" stroke="black"/>
<path d="M81.1161 83.5C77.239 83.5 74.1517 86.4399 74.1517 90C74.1517 93.5601 77.239 96.5 81.1161 96.5C84.9932 96.5 88.0806 93.5601 88.0806 90C88.0806 86.4399 84.9932 83.5 81.1161 83.5Z" fill="white" stroke="black"/>
<path d="M91.0687 72.5C87.2246 72.5 84.1043 75.6317 84.1043 79.5C84.1043 83.3682 87.2246 86.5 91.0687 86.5C94.9128 86.5 98.0332 83.3682 98.0332 79.5C98.0332 75.6317 94.9128 72.5 91.0687 72.5Z" fill="white" stroke="black"/>
<path d="M97.0403 59.5C93.1962 59.5 90.0758 62.6317 90.0758 66.5C90.0758 70.3682 93.1962 73.5 97.0403 73.5C100.884 73.5 104.005 70.3682 104.005 66.5C104.005 62.6317 100.884 59.5 97.0403 59.5Z" fill="white" stroke="black"/>
<path d="M39.3152 16.5C43.1593 16.5 46.2796 13.3682 46.2796 9.5C46.2796 5.63176 43.1593 2.5 39.3152 2.5C35.471 2.5 32.3507 5.63176 32.3507 9.5C32.3507 13.3682 35.471 16.5 39.3152 16.5Z" fill="white" stroke="black"/>
<path d="M25.3815 22.5C29.2256 22.5 32.346 19.3682 32.346 15.5C32.346 11.6318 29.2256 8.5 25.3815 8.5C21.5374 8.5 18.4171 11.6318 18.4171 15.5C18.4171 19.3682 21.5374 22.5 25.3815 22.5Z" fill="white" stroke="black"/>
<path d="M15.4289 32.5C19.273 32.5 22.3934 29.3682 22.3934 25.5C22.3934 21.6318 19.273 18.5 15.4289 18.5C11.5848 18.5 8.46445 21.6318 8.46445 25.5C8.46445 29.3682 11.5848 32.5 15.4289 32.5Z" fill="white" stroke="black"/>
<path d="M8.46207 59.5C12.3062 59.5 15.4265 56.3682 15.4265 52.5C15.4265 48.6318 12.3062 45.5 8.46207 45.5C4.61795 45.5 1.49762 48.6318 1.49762 52.5C1.49762 56.3682 4.61795 59.5 8.46207 59.5Z" fill="white" stroke="black"/>
<path d="M9.45734 45.5C13.3015 45.5 16.4218 42.3682 16.4218 38.5C16.4218 34.6318 13.3015 31.5 9.45734 31.5C5.61322 31.5 2.49289 34.6318 2.49289 38.5C2.49289 42.3682 5.61322 45.5 9.45734 45.5Z" fill="white" stroke="black"/>
<path d="M39.3152 88.5C43.1295 88.5 46.2796 91.8247 46.2796 96C46.2796 100.175 43.1295 103.5 39.3152 103.5C35.5009 103.5 32.3507 100.175 32.3507 96C32.3507 91.8247 35.5009 88.5 39.3152 88.5Z" fill="white" stroke="black"/>
<path d="M25.3815 83.5C29.2586 83.5 32.346 86.4399 32.346 90C32.346 93.5601 29.2586 96.5 25.3815 96.5C21.5044 96.5 18.4171 93.5601 18.4171 90C18.4171 86.4399 21.5044 83.5 25.3815 83.5Z" fill="white" stroke="black"/>
<path d="M15.4289 72.5C19.273 72.5 22.3934 75.6318 22.3934 79.5C22.3934 83.3682 19.273 86.5 15.4289 86.5C11.5848 86.5 8.46445 83.3682 8.46445 79.5C8.46445 75.6318 11.5848 72.5 15.4289 72.5Z" fill="white" stroke="black"/>
<path d="M9.45734 59.5C13.3015 59.5 16.4218 62.6318 16.4218 66.5C16.4218 70.3682 13.3015 73.5 9.45734 73.5C5.61322 73.5 2.49289 70.3682 2.49289 66.5C2.49289 62.6318 5.61322 59.5 9.45734 59.5Z" fill="white" stroke="black"/>
</svg>
