<svg width="105" height="105" viewBox="0 0 105 105" fill="none" xmlns="http://www.w3.org/2000/svg">
<circle cx="76.8286" cy="45.5" r="7" fill="white" stroke="black"/>
<circle cx="29.6048" cy="45.5" r="7" fill="white" stroke="black"/>
<circle cx="38.6476" cy="32.5" r="7" transform="rotate(90 38.6476 32.5)" fill="white" stroke="black"/>
<circle cx="67.7857" cy="32.5" r="7" transform="rotate(90 67.7857 32.5)" fill="white" stroke="black"/>
<circle cx="53.0871" cy="29.5" r="7" transform="rotate(90 53.0871 29.5)" fill="white" stroke="black"/>
<path d="M83.9 60.5C83.9 56.6362 80.7522 53.5 76.8643 53.5C72.9763 53.5 69.8286 56.6362 69.8286 60.5C69.8286 64.3638 72.9763 67.5 76.8643 67.5C80.7522 67.5 83.9 64.3638 83.9 60.5Z" fill="white" stroke="black"/>
<path d="M36.6762 60.5C36.6762 56.6362 33.5284 53.5 29.6405 53.5C25.7525 53.5 22.6048 56.6362 22.6048 60.5C22.6048 64.3638 25.7525 67.5 29.6405 67.5C33.5284 67.5 36.6762 64.3638 36.6762 60.5Z" fill="white" stroke="black"/>
<path d="M38.6833 66.5C34.7954 66.5 31.6476 69.6362 31.6476 73.5C31.6476 77.3638 34.7954 80.5 38.6833 80.5C42.5713 80.5 45.7191 77.3638 45.7191 73.5C45.7191 69.6362 42.5713 66.5 38.6833 66.5Z" fill="white" stroke="black"/>
<path d="M67.8214 66.5C63.9335 66.5 60.7857 69.6362 60.7857 73.5C60.7857 77.3638 63.9335 80.5 67.8214 80.5C71.7094 80.5 74.8571 77.3638 74.8571 73.5C74.8571 69.6362 71.7094 66.5 67.8214 66.5Z" fill="white" stroke="black"/>
<path d="M52.75 69.5C48.862 69.5 45.7143 72.6362 45.7143 76.5C45.7143 80.3638 48.862 83.5 52.75 83.5C56.638 83.5 59.7857 80.3638 59.7857 76.5C59.7857 72.6362 56.638 69.5 52.75 69.5Z" fill="white" stroke="black"/>
</svg>
