<svg width="106" height="105" viewBox="0 0 106 105" fill="none" xmlns="http://www.w3.org/2000/svg">
<path d="M84.0995 61.5C84.0995 65.3682 80.9792 68.5 77.1351 68.5C73.291 68.5 70.1706 65.3682 70.1706 61.5C70.1706 57.6317 73.291 54.5 77.1351 54.5C80.9792 54.5 84.0995 57.6317 84.0995 61.5Z" fill="white" stroke="black"/>
<path d="M84.0995 43.5C84.0995 47.3682 80.9792 50.5 77.1351 50.5C73.291 50.5 70.1706 47.3682 70.1706 43.5C70.1706 39.6317 73.291 36.5 77.1351 36.5C80.9792 36.5 84.0995 39.6317 84.0995 43.5Z" fill="white" stroke="black"/>
<path d="M36.327 61.5C36.327 65.3682 33.2067 68.5 29.3626 68.5C25.5184 68.5 22.3981 65.3682 22.3981 61.5C22.3981 57.6317 25.5184 54.5 29.3626 54.5C33.2067 54.5 36.327 57.6317 36.327 61.5Z" fill="white" stroke="black"/>
<path d="M36.327 43.5C36.327 47.3682 33.2067 50.5 29.3626 50.5C25.5184 50.5 22.3981 47.3682 22.3981 43.5C22.3981 39.6317 25.5184 36.5 29.3626 36.5C33.2067 36.5 36.327 39.6317 36.327 43.5Z" fill="white" stroke="black"/>
<path d="M44.2915 83.5C40.4473 83.5 37.327 80.3682 37.327 76.5C37.327 72.6317 40.4473 69.5 44.2915 69.5C48.1356 69.5 51.2559 72.6317 51.2559 76.5C51.2559 80.3682 48.1356 83.5 44.2915 83.5Z" fill="white" stroke="black"/>
<path d="M62.2062 83.5C58.362 83.5 55.2417 80.3682 55.2417 76.5C55.2417 72.6317 58.362 69.5 62.2062 69.5C66.0503 69.5 69.1706 72.6317 69.1706 76.5C69.1706 80.3682 66.0503 83.5 62.2062 83.5Z" fill="white" stroke="black"/>
<path d="M44.2915 35.5C40.4473 35.5 37.327 32.3682 37.327 28.5C37.327 24.6318 40.4473 21.5 44.2915 21.5C48.1356 21.5 51.2559 24.6318 51.2559 28.5C51.2559 32.3682 48.1356 35.5 44.2915 35.5Z" fill="white" stroke="black"/>
<path d="M62.2062 34.5C58.362 34.5 55.2417 31.3682 55.2417 27.5C55.2417 23.6318 58.362 20.5 62.2062 20.5C66.0503 20.5 69.1706 23.6318 69.1706 27.5C69.1706 31.3682 66.0503 34.5 62.2062 34.5Z" fill="white" stroke="black"/>
</svg>
